<svg xmlns="http://www.w3.org/2000/svg" width="400" height="400" viewBox="0 0 51 51" shape-rendering="crispEdges"><path fill="#f0f0f0" d="M0 0h51v51H0z"/><path stroke="#4a0e4e" d="M1 1.5h7m1 0h3m3 0h1m1 0h1m3 0h2m1 0h2m4 0h2m1 0h1m2 0h2m3 0h1m1 0h7M1 2.5h1m5 0h1m5 0h4m2 0h1m5 0h1m1 0h6m1 0h1m1 0h1m1 0h4m1 0h1m5 0h1M1 3.5h1m1 0h3m1 0h1m3 0h2m5 0h1m3 0h1m1 0h2m3 0h2m1 0h1m1 0h3m1 0h1m1 0h2m1 0h1m1 0h3m1 0h1M1 4.5h1m1 0h3m1 0h1m1 0h2m1 0h1m1 0h3m1 0h1m5 0h5m1 0h2m1 0h1m6 0h1m2 0h1m1 0h3m1 0h1M1 5.5h1m1 0h3m1 0h1m1 0h1m1 0h1m1 0h1m1 0h2m1 0h1m1 0h1m2 0h5m4 0h4m2 0h1m4 0h1m1 0h3m1 0h1M1 6.5h1m5 0h1m1 0h1m2 0h2m2 0h5m1 0h2m3 0h5m2 0h1m1 0h1m2 0h1m3 0h1m5 0h1M1 7.5h7m1 0h1m1 0h1m1 0h1m1 0h1m1 0h1m1 0h1m1 0h1m1 0h1m1 0h1m1 0h1m1 0h1m1 0h1m1 0h1m1 0h1m1 0h1m1 0h1m1 0h1m1 0h7M9 8.5h1m3 0h2m1 0h5m1 0h2m3 0h1m1 0h4m1 0h2m2 0h4M1 9.5h1m3 0h1m1 0h6m2 0h2m2 0h1m1 0h1m1 0h5m3 0h1m2 0h4m1 0h2m1 0h5m2 0h1M1 10.5h1m4 0h1m3 0h1m6 0h7m2 0h2m2 0h2m1 0h2m1 0h4m1 0h3m1 0h1m1 0h1m1 0h1M3 11.5h1m2 0h2m4 0h1m7 0h1m2 0h2m1 0h1m1 0h2m2 0h2m1 0h2m3 0h2m4 0h1M2 12.5h1m3 0h1m6 0h1m2 0h5m1 0h2m3 0h1m1 0h3m2 0h1m3 0h1m3 0h3m2 0h1M1 13.5h2m1 0h2m1 0h2m1 0h2m3 0h1m3 0h2m1 0h1m1 0h5m1 0h4m2 0h5m1 0h2m2 0h1m1 0h1M3 14.5h1m5 0h2m1 0h3m1 0h2m1 0h2m4 0h1m1 0h1m2 0h1m1 0h2m4 0h1m1 0h3m1 0h2m2 0h2M1 15.5h3m1 0h1m1 0h1m1 0h2m1 0h2m3 0h2m1 0h2m2 0h3m1 0h2m2 0h2m1 0h2m1 0h1m6 0h1m3 0h1M1 16.5h1m2 0h1m6 0h1m2 0h1m2 0h1m1 0h1m1 0h1m1 0h1m2 0h2m1 0h4m1 0h1m4 0h3m1 0h1m2 0h2m1 0h1M1 17.5h3m1 0h1m1 0h3m1 0h4m3 0h2m1 0h2m1 0h1m1 0h3m2 0h3m9 0h4m1 0h1M1 18.5h3m5 0h3m1 0h1m4 0h1m1 0h1m3 0h1m1 0h2m1 0h2m1 0h3m1 0h1m3 0h1m1 0h5m1 0h2M3 19.5h1m1 0h3m1 0h8m1 0h1m2 0h2m1 0h3m1 0h1m3 0h2m1 0h4m3 0h1m2 0h1m1 0h2M1 20.5h1m1 0h1m2 0h1m1 0h1m2 0h1m2 0h2m1 0h1m4 0h1m3 0h2m1 0h2m1 0h1m1 0h2m2 0h1m1 0h1m1 0h4M3 21.5h3m1 0h3m1 0h2m1 0h1m2 0h2m2 0h2m1 0h1m2 0h5m1 0h5m1 0h1m2 0h1m5 0h2M1 22.5h2m1 0h2m2 0h2m2 0h1m1 0h1m1 0h3m1 0h1m2 0h7m2 0h2m1 0h4m1 0h3m3 0h4M5 23.5h6m1 0h1m1 0h5m4 0h6m4 0h3m1 0h2m2 0h5m1 0h2M1 24.5h1m1 0h1m1 0h1m3 0h3m3 0h1m5 0h1m1 0h1m3 0h1m1 0h4m1 0h2m2 0h4m3 0h1m1 0h1M1 25.5h1m3 0h1m1 0h1m1 0h1m2 0h3m2 0h1m2 0h2m1 0h1m1 0h1m1 0h2m1 0h1m1 0h1m6 0h1m1 0h1m1 0h1m1 0h1m2 0h1M2 26.5h4m3 0h1m3 0h1m2 0h1m1 0h6m3 0h2m2 0h2m1 0h1m4 0h1m1 0h1m3 0h1m1 0h1m1 0h1M1 27.5h3m1 0h5m4 0h1m2 0h1m1 0h10m3 0h2m1 0h2m4 0h8M1 28.5h1m3 0h2m1 0h1m4 0h6m6 0h1m3 0h3m2 0h1m5 0h1m4 0h1m2 0h2M1 29.5h2m2 0h3m1 0h1m2 0h3m1 0h2m4 0h1m1 0h9m1 0h3m2 0h1m5 0h2M2 30.5h5m1 0h1m1 0h1m1 0h1m2 0h2m3 0h2m3 0h1m2 0h1m1 0h2m3 0h1m1 0h1m2 0h1m1 0h1m1 0h2m2 0h2M1 31.5h1m1 0h1m2 0h2m3 0h2m3 0h7m1 0h1m4 0h2m2 0h3m6 0h2m3 0h3M1 32.5h2m2 0h1m3 0h2m3 0h3m1 0h1m1 0h3m1 0h4m1 0h4m1 0h1m4 0h3m3 0h1m1 0h1M1 33.5h4m1 0h6m1 0h1m2 0h2m1 0h4m1 0h2m8 0h4m2 0h1m1 0h1m2 0h1m2 0h2M5 34.5h2m1 0h1m1 0h1m2 0h2m1 0h3m1 0h1m1 0h2m2 0h1m1 0h6m2 0h3m1 0h1m1 0h3m1 0h1m1 0h2M1 35.5h1m2 0h2m1 0h1m1 0h2m2 0h1m1 0h7m1 0h2m3 0h1m3 0h1m1 0h5m1 0h3m1 0h2m1 0h1M2 36.5h3m1 0h1m2 0h1m2 0h3m1 0h1m2 0h1m1 0h3m1 0h2m2 0h2m1 0h1m7 0h1m2 0h1m1 0h5M1 37.5h1m1 0h1m1 0h3m2 0h2m1 0h2m4 0h1m1 0h1m1 0h4m1 0h3m1 0h2m1 0h1m3 0h2m1 0h1m1 0h2m3 0h1M1 38.5h2m1 0h1m4 0h1m1 0h2m3 0h3m4 0h3m9 0h1m1 0h1m1 0h1m1 0h1m1 0h1m1 0h5M2 39.5h1m3 0h2m1 0h1m2 0h1m1 0h1m2 0h1m1 0h12m3 0h3m1 0h1m2 0h3m1 0h1m1 0h1m1 0h1M2 40.5h3m3 0h4m2 0h1m1 0h2m1 0h1m1 0h1m2 0h3m2 0h3m2 0h3m1 0h2m1 0h2m2 0h1m1 0h1m1 0h1M1 41.5h3m3 0h3m1 0h2m5 0h2m1 0h7m1 0h2m1 0h2m1 0h2m2 0h1m1 0h5M9 42.5h2m3 0h1m1 0h4m1 0h1m1 0h1m3 0h3m1 0h1m2 0h1m1 0h3m1 0h2m3 0h3m1 0h1M1 43.5h7m1 0h1m4 0h1m1 0h1m2 0h2m1 0h2m1 0h1m1 0h2m1 0h1m4 0h1m1 0h1m2 0h2m1 0h1m1 0h5M1 44.5h1m5 0h1m2 0h1m1 0h1m1 0h1m4 0h1m3 0h1m3 0h1m1 0h3m2 0h1m3 0h2m1 0h1m3 0h1m2 0h2M1 45.5h1m1 0h3m1 0h1m1 0h1m4 0h2m1 0h1m5 0h5m1 0h1m1 0h1m6 0h1m2 0h5m2 0h1M1 46.5h1m1 0h3m1 0h1m2 0h1m3 0h1m2 0h2m2 0h2m3 0h2m1 0h1m1 0h3m3 0h2m1 0h1m3 0h1m1 0h2m1 0h1M1 47.5h1m1 0h3m1 0h1m3 0h2m1 0h1m4 0h2m1 0h1m1 0h2m1 0h1m4 0h2m1 0h1m2 0h1m1 0h1m2 0h4m1 0h1M1 48.5h1m5 0h1m4 0h1m1 0h1m1 0h2m1 0h3m2 0h1m2 0h1m1 0h4m1 0h1m4 0h1m1 0h1m2 0h1m1 0h1m1 0h2M1 49.5h7m1 0h4m1 0h5m2 0h3m1 0h4m2 0h3m2 0h2m2 0h2m1 0h1m5 0h1"/></svg>
